<svg xmlns="http://www.w3.org/2000/svg" xmlns:xlink="http://www.w3.org/1999/xlink" width="500" zoomAndPan="magnify" viewBox="0 0 375 374.999991" height="500" preserveAspectRatio="xMidYMid meet" version="1.0"><defs><g/><clipPath id="25159af2fb"><path d="M 159 155 L 165.75 155 L 165.75 182 L 159 182 Z M 159 155 " clip-rule="nonzero"/></clipPath><clipPath id="cddbc06df7"><path d="M 37.5 89 L 160 89 L 160 286.632812 L 37.5 286.632812 Z M 37.5 89 " clip-rule="nonzero"/></clipPath><clipPath id="a554fee4fd"><path d="M 37.5 89 L 165.75 89 L 165.75 286.632812 L 37.5 286.632812 Z M 37.5 89 " clip-rule="nonzero"/></clipPath></defs><path fill="#1d1d23" d="M 57.832031 100.019531 C 57.914062 100.402344 57.96875 100.78125 58.03125 101.15625 C 58.078125 101.414062 58.15625 101.667969 58.210938 101.921875 C 58.273438 102.203125 58.332031 102.480469 58.390625 102.757812 L 58.460938 103.058594 L 58.621094 103.703125 C 58.632812 103.726562 58.652344 104.011719 58.734375 104.332031 C 58.804688 104.652344 58.878906 105.007812 58.90625 105.171875 C 58.9375 105.382812 59.007812 105.585938 59.078125 105.789062 C 59.09375 105.835938 59.554688 105.714844 59.542969 105.65625 C 59.507812 105.480469 59.453125 104.601562 59.398438 104.449219 C 59.28125 104.246094 59.292969 102.296875 59.273438 102.234375 C 59.265625 102.164062 59.261719 101.929688 59.261719 101.710938 C 59.257812 101.492188 59.253906 101.289062 59.253906 101.28125 C 59.238281 101.226562 59.21875 100.730469 59.203125 100.617188 C 59.203125 100.460938 58.933594 99.058594 58.921875 98.847656 C 58.917969 98.773438 58.449219 98.585938 58.140625 98.691406 C 57.867188 98.78125 57.65625 98.878906 57.667969 98.972656 C 57.679688 99.105469 57.667969 99.238281 57.6875 99.367188 C 57.726562 99.585938 57.785156 99.800781 57.832031 100.019531 Z M 57.832031 100.019531 " fill-opacity="1" fill-rule="nonzero"/><path fill="#1d1d23" d="M 163.84375 187.441406 C 163.546875 187.5 163.296875 187.605469 163.246094 187.847656 C 163.179688 188.171875 163.085938 188.496094 163.027344 188.824219 L 162.746094 190.503906 C 162.574219 191.480469 162.390625 192.460938 162.230469 193.445312 C 162.117188 194.113281 162.050781 194.796875 161.960938 195.46875 C 161.855469 196.191406 161.765625 196.914062 161.683594 197.640625 L 161.597656 198.421875 C 161.539062 198.980469 161.511719 199.542969 161.46875 200.097656 C 161.4375 200.21875 161.207031 203.035156 161.191406 203.867188 C 161.164062 204.410156 161.175781 204.953125 161.1875 205.492188 C 161.191406 205.621094 161.667969 205.636719 161.671875 205.480469 C 161.6875 205.019531 161.859375 202.777344 161.90625 202.367188 C 161.910156 202.222656 161.949219 201.804688 162.007812 201.261719 C 162.0625 200.71875 162.1875 200.050781 162.285156 199.394531 C 162.488281 198.085938 162.769531 196.832031 162.773438 196.742188 C 162.796875 196.5625 162.929688 195.992188 163.042969 195.460938 C 163.160156 194.929688 163.265625 194.4375 163.269531 194.414062 C 163.285156 194.277344 163.554688 193.066406 163.605469 192.792969 C 163.671875 192.429688 164.347656 188.820312 164.445312 188.300781 C 164.484375 188.117188 164.183594 187.371094 163.84375 187.441406 Z M 163.84375 187.441406 " fill-opacity="1" fill-rule="nonzero"/><path fill="#1d1d23" d="M 47.875 106.394531 C 47.945312 106.621094 48 106.847656 48.074219 107.074219 C 48.125 107.226562 48.207031 107.371094 48.269531 107.519531 C 48.332031 107.683594 48.394531 107.847656 48.457031 108.007812 L 48.527344 108.183594 L 48.691406 108.550781 C 48.703125 108.578125 48.875 109.222656 48.902344 109.417969 C 48.917969 109.546875 48.972656 109.664062 49.027344 109.785156 C 49.042969 109.808594 49.5 109.6875 49.496094 109.652344 C 49.472656 109.546875 49.472656 108.996094 49.429688 108.90625 C 49.375 108.777344 49.324219 107.585938 49.316406 107.546875 C 49.308594 107.503906 49.300781 107.363281 49.292969 107.230469 C 49.289062 107.101562 49.285156 106.976562 49.28125 106.972656 C 49.265625 106.945312 49.238281 106.648438 49.222656 106.582031 C 49.203125 106.5 48.992188 105.65625 48.980469 105.53125 C 48.976562 105.484375 48.523438 105.429688 48.214844 105.53125 C 47.945312 105.621094 47.734375 105.710938 47.742188 105.769531 C 47.753906 105.847656 47.734375 105.929688 47.753906 106.007812 C 47.785156 106.140625 47.839844 106.265625 47.875 106.394531 Z M 47.875 106.394531 " fill-opacity="1" fill-rule="nonzero"/><path fill="#1d1d23" d="M 83.535156 112.769531 C 83.632812 112.726562 83.949219 112.65625 84.242188 112.535156 C 84.546875 112.429688 84.820312 112.277344 84.90625 112.222656 C 85.011719 112.140625 85.585938 111.832031 86.101562 111.480469 C 86.617188 111.136719 87.09375 110.78125 87.125 110.753906 C 87.191406 110.699219 87.402344 110.539062 87.605469 110.386719 C 87.800781 110.238281 87.984375 110.097656 87.992188 110.089844 C 88.03125 110.042969 88.46875 109.691406 88.558594 109.613281 C 88.621094 109.554688 88.949219 109.25 89.292969 108.960938 C 89.644531 108.664062 89.96875 108.417969 90.089844 108.347656 C 90.164062 108.304688 90.167969 107.777344 89.933594 107.546875 C 89.730469 107.34375 89.546875 107.195312 89.453125 107.257812 C 89.324219 107.335938 89.179688 107.390625 89.050781 107.496094 C 88.824219 107.667969 88.636719 107.855469 88.4375 108.03125 C 88.09375 108.339844 87.753906 108.648438 87.4375 108.972656 C 87.21875 109.191406 87.027344 109.433594 86.820312 109.660156 C 86.597656 109.902344 86.371094 110.128906 86.144531 110.363281 L 85.898438 110.605469 C 85.726562 110.785156 85.546875 110.953125 85.367188 111.125 C 85.347656 111.140625 85.097656 111.351562 84.796875 111.542969 C 84.5 111.75 84.15625 111.9375 83.988281 112.003906 C 83.777344 112.101562 83.574219 112.203125 83.367188 112.316406 C 83.320312 112.34375 83.46875 112.796875 83.535156 112.769531 Z M 83.535156 112.769531 " fill-opacity="1" fill-rule="nonzero"/><path fill="#1d1d23" d="M 67.875 106.628906 C 67.929688 106.417969 68.308594 105.410156 68.339844 105.210938 C 68.378906 104.9375 69.164062 102.699219 69.183594 102.613281 C 69.234375 102.445312 69.492188 101.542969 69.5 101.523438 C 69.5 101.457031 69.652344 100.890625 69.679688 100.761719 C 69.710938 100.589844 70.027344 98.886719 70.09375 98.644531 C 70.117188 98.558594 69.757812 98.164062 69.425781 98.160156 C 69.140625 98.15625 68.90625 98.183594 68.878906 98.296875 C 68.839844 98.449219 68.773438 98.597656 68.746094 98.753906 C 68.695312 99.015625 68.667969 99.28125 68.625 99.546875 C 68.546875 100.011719 68.460938 100.472656 68.390625 100.9375 C 68.347656 101.253906 68.332031 101.578125 68.292969 101.894531 C 68.261719 102.242188 68.203125 102.574219 68.144531 102.910156 L 68.082031 103.269531 L 67.96875 104.046875 C 67.960938 104.101562 67.660156 105.386719 67.550781 105.761719 C 67.476562 106.003906 67.441406 106.253906 67.40625 106.507812 C 67.398438 106.566406 67.855469 106.699219 67.875 106.628906 Z M 67.875 106.628906 " fill-opacity="1" fill-rule="nonzero"/><path fill="#1d1d23" d="M 38.578125 110.164062 C 38.742188 110.347656 38.925781 110.515625 39.101562 110.695312 C 39.402344 111.011719 39.707031 111.328125 40.027344 111.625 C 40.242188 111.832031 40.488281 112.007812 40.71875 112.199219 C 40.964844 112.40625 41.210938 112.609375 41.464844 112.804688 L 41.734375 113.015625 C 41.933594 113.164062 42.140625 113.296875 42.34375 113.4375 C 42.378906 113.476562 43.363281 114.226562 43.664062 114.433594 C 43.855469 114.574219 44.066406 114.6875 44.28125 114.792969 C 44.328125 114.820312 44.582031 114.414062 44.527344 114.378906 C 44.363281 114.265625 43.632812 113.632812 43.492188 113.527344 C 43.4375 113.496094 43.300781 113.382812 43.125 113.226562 C 42.953125 113.070312 42.75 112.859375 42.550781 112.660156 C 42.152344 112.25 41.800781 111.828125 41.769531 111.804688 C 41.710938 111.753906 41.554688 111.558594 41.40625 111.378906 C 41.257812 111.199219 41.117188 111.035156 41.113281 111.027344 C 41.0625 110.992188 40.726562 110.578125 40.644531 110.496094 C 40.527344 110.390625 39.472656 109.242188 39.332031 109.046875 C 39.28125 108.980469 38.765625 109.046875 38.5625 109.304688 C 38.382812 109.527344 38.257812 109.726562 38.320312 109.808594 C 38.414062 109.925781 38.480469 110.058594 38.578125 110.164062 Z M 38.578125 110.164062 " fill-opacity="1" fill-rule="nonzero"/><path fill="#1d1d23" d="M 116.664062 108.5625 L 116.613281 108.605469 L 116.558594 108.664062 Z M 116.664062 108.5625 " fill-opacity="1" fill-rule="nonzero"/><g clip-path="url(#25159af2fb)"><path fill="#1d1d23" d="M 165.535156 180.726562 C 165.476562 180.316406 165.417969 179.820312 165.378906 179.328125 C 165.308594 178.335938 165.304688 177.34375 165.28125 177.03125 C 165.261719 176.8125 165.257812 176.191406 165.222656 175.363281 C 165.21875 174.953125 165.179688 174.480469 165.144531 173.984375 C 165.132812 173.734375 165.09375 173.492188 165.058594 173.246094 C 165.023438 172.992188 165 172.769531 164.949219 172.488281 C 164.578125 170.492188 163.957031 168.648438 163.914062 168.515625 C 163.828125 168.253906 163.546875 167.421875 163.28125 166.648438 C 163.015625 165.878906 162.769531 165.167969 162.757812 165.132812 C 162.667969 164.945312 162.082031 163.207031 161.957031 162.820312 C 161.882812 162.558594 161.382812 161.160156 161.089844 159.699219 C 161.023438 159.332031 160.957031 158.96875 160.894531 158.617188 C 160.855469 158.261719 160.816406 157.925781 160.78125 157.621094 C 160.742188 157.023438 160.71875 156.570312 160.722656 156.375 C 160.734375 156.097656 160.324219 155.074219 160 155.261719 C 159.710938 155.421875 159.484375 155.640625 159.46875 156.007812 C 159.433594 156.492188 159.457031 157.042969 159.476562 157.566406 C 159.515625 158.003906 159.578125 158.4375 159.640625 158.871094 C 159.726562 159.296875 159.800781 159.730469 159.898438 160.152344 C 160.234375 161.640625 160.707031 163.082031 161.238281 164.480469 C 161.601562 165.433594 162.007812 166.359375 162.390625 167.292969 C 162.789062 168.292969 163.183594 169.292969 163.515625 170.308594 C 163.644531 170.671875 163.742188 171.039062 163.863281 171.402344 C 163.988281 171.796875 164.078125 172.195312 164.1875 172.589844 C 164.277344 172.960938 164.347656 173.394531 164.429688 173.796875 C 164.441406 173.886719 164.566406 174.929688 164.617188 176.15625 C 164.660156 177.371094 164.738281 178.742188 164.792969 179.363281 C 164.824219 179.769531 164.898438 180.175781 164.960938 180.578125 C 165.035156 180.980469 165.15625 181.375 165.253906 181.773438 C 165.304688 181.960938 165.769531 181.851562 165.71875 181.628906 C 165.683594 181.460938 165.617188 181.136719 165.535156 180.726562 Z M 165.535156 180.726562 " fill-opacity="1" fill-rule="nonzero"/></g><g clip-path="url(#cddbc06df7)"><path fill="#1d1d23" d="M 157.082031 220.367188 C 157.359375 222.976562 155.453125 224.003906 154.523438 224.472656 C 153.59375 224.933594 151.453125 226.054688 150.476562 225.496094 C 149.5 224.933594 147.078125 222.976562 147.6875 221.253906 C 148.289062 219.53125 147.777344 218.175781 147.777344 218.175781 C 147.21875 217.199219 146.472656 216.777344 146.472656 214.121094 C 146.472656 211.460938 150.195312 207.363281 150.195312 207.363281 L 149.265625 183.582031 C 148.148438 176.402344 144.613281 160.734375 144.613281 160.734375 L 145.359375 188.339844 C 144.796875 188.449219 144.25 188.558594 143.699219 188.660156 C 143.914062 190.496094 144.140625 200.867188 144.398438 214.15625 C 144.726562 231.285156 145.105469 253.261719 145.578125 268.035156 C 145.578125 268.121094 145.582031 268.207031 145.585938 268.289062 C 145.789062 272.132812 147.636719 274.246094 149.085938 276.285156 C 153.882812 283.007812 155.644531 286.449219 153.300781 286.234375 C 150.679688 285.988281 143.179688 281.601562 140.429688 276.285156 C 139.820312 275.105469 139 272.625 138.039062 269.230469 C 138.039062 269.226562 138.035156 269.226562 138.035156 269.226562 C 132.226562 248.714844 122.09375 204.84375 122.09375 204.84375 C 120.941406 210.820312 118.472656 249.839844 116.164062 269.65625 C 115.589844 274.558594 114.976562 277.675781 114.332031 277.917969 C 111.054688 279.144531 96.890625 282.6875 95.957031 280.644531 C 95.925781 280.578125 95.914062 280.507812 95.914062 280.429688 C 95.914062 278.160156 107.941406 270.757812 108.472656 267.710938 C 108.496094 267.582031 108.5 267.457031 108.476562 267.34375 C 107.953125 264.480469 101.109375 186.84375 101.109375 186.84375 C 100.214844 186.507812 99.761719 186.285156 99.761719 186.285156 C 102.183594 178.359375 103.144531 155.332031 103.144531 155.332031 C 103.144531 155.332031 97.996094 167.578125 93.28125 167.578125 C 85.648438 167.578125 70.511719 136.925781 69.195312 135.328125 C 67.800781 133.636719 64.738281 134.273438 64.027344 133.785156 C 60.167969 131.136719 60.585938 132.09375 57.425781 131.394531 C 55.710938 131.015625 54.585938 130.066406 53.910156 129.277344 L 37.511719 129.277344 L 37.511719 126.980469 L 41.609375 126.980469 C 41.886719 118.488281 49.90625 111.570312 60.125 110.742188 C 60.238281 109.238281 61.109375 108.0625 62.171875 108.0625 C 63.234375 108.0625 64.105469 109.238281 64.222656 110.742188 C 74.441406 111.570312 82.464844 118.488281 82.734375 126.980469 L 86.269531 126.980469 L 86.269531 129.277344 L 72.519531 129.277344 C 73.136719 129.960938 73.242188 130.617188 73.242188 130.617188 L 91.992188 149.921875 C 91.992188 149.921875 98.691406 141.996094 102.878906 133.371094 C 103.09375 132.925781 103.332031 132.5 103.582031 132.097656 C 106.195312 127.882812 110.605469 125.746094 114.125 124.472656 C 115.199219 124.082031 116.191406 123.777344 117.023438 123.511719 C 117.859375 123.25 118.535156 123.03125 118.96875 122.820312 C 119.191406 122.710938 119.351562 122.609375 119.445312 122.503906 C 120.515625 121.246094 120.515625 115.964844 120.515625 115.964844 C 118.230469 114.179688 117.097656 110.722656 116.765625 108.546875 L 116.660156 108.554688 L 116.609375 108.609375 L 116.550781 108.660156 L 116.652344 108.554688 C 116.410156 108.269531 111.070312 101.984375 115.117188 97.839844 C 115.117188 97.839844 112.089844 92.941406 117.070312 90.894531 C 122.046875 88.84375 131.496094 88.796875 135.214844 95.367188 C 138.9375 101.941406 137.445312 108.707031 131.140625 112.625 C 130.636719 113.460938 129.960938 114.308594 129.066406 115.050781 C 129.027344 119.757812 129.855469 122.128906 131.277344 123.539062 C 132.429688 124.675781 133.972656 125.183594 135.765625 125.785156 C 138.175781 126.597656 141.023438 127.578125 143.960938 130.523438 C 144.476562 131.042969 144.996094 131.703125 145.511719 132.480469 C 145.511719 132.480469 145.511719 132.480469 145.511719 132.484375 C 152.824219 143.539062 159.964844 178.917969 159.964844 178.917969 C 159.964844 178.917969 155.921875 208.386719 155.96875 210.109375 C 156.011719 211.835938 156.804688 217.757812 157.082031 220.367188 Z M 157.082031 220.367188 " fill-opacity="1" fill-rule="nonzero"/></g><path fill="#1d1d23" d="M 98.910156 221.472656 C 98.914062 221.339844 98.472656 220.859375 98.148438 220.960938 C 97.871094 221.050781 97.648438 221.167969 97.648438 221.34375 C 97.644531 221.585938 97.617188 221.828125 97.625 222.070312 L 97.679688 223.292969 L 97.730469 225.441406 C 97.746094 225.933594 97.796875 226.425781 97.824219 226.914062 C 97.851562 227.441406 97.878906 227.96875 97.917969 228.496094 L 97.957031 229.0625 C 97.984375 229.464844 98.039062 229.871094 98.082031 230.273438 C 98.074219 230.363281 98.238281 232.402344 98.320312 233.003906 C 98.359375 233.394531 98.441406 233.78125 98.523438 234.164062 C 98.542969 234.253906 99.011719 234.183594 98.996094 234.074219 C 98.949219 233.742188 98.847656 232.125 98.828125 231.828125 C 98.8125 231.726562 98.796875 231.425781 98.78125 231.03125 C 98.769531 230.636719 98.777344 230.148438 98.78125 229.667969 C 98.792969 228.707031 98.847656 227.78125 98.84375 227.714844 C 98.84375 227.585938 98.867188 227.160156 98.886719 226.769531 C 98.910156 226.375 98.929688 226.011719 98.929688 225.996094 C 98.917969 225.894531 98.957031 224.996094 98.957031 224.796875 C 98.953125 224.523438 98.917969 221.859375 98.910156 221.472656 Z M 98.910156 221.472656 " fill-opacity="1" fill-rule="nonzero"/><path fill="#1d1d23" d="M 96.570312 202.964844 L 96.777344 203.539062 L 96.8125 203.640625 L 96.847656 203.707031 L 97.035156 204.117188 L 97.289062 204.664062 L 97.578125 205.214844 C 97.769531 205.585938 97.96875 205.9375 98.164062 206.289062 C 98.585938 207.042969 99 207.78125 99.378906 208.53125 C 99.734375 209.289062 100.074219 210.054688 100.277344 210.851562 C 100.4375 211.410156 100.5625 212.027344 100.6875 212.628906 C 100.914062 213.882812 101.035156 215.199219 101.105469 216.503906 C 101.183594 216.773438 101.105469 223.425781 101.402344 225.40625 C 101.535156 226.6875 101.78125 227.96875 102.199219 229.195312 C 102.289062 229.488281 102.75 229.371094 102.652344 229.023438 C 102.484375 228.507812 102.121094 226.953125 101.988281 225.375 C 101.839844 223.804688 101.839844 222.226562 101.816406 221.738281 C 101.800781 221.394531 101.800781 220.402344 101.8125 219.101562 C 101.820312 217.796875 101.835938 216.179688 101.726562 214.578125 C 101.671875 213.785156 101.585938 212.976562 101.46875 212.238281 C 101.402344 211.878906 101.351562 211.53125 101.277344 211.195312 C 101.199219 210.851562 101.125 210.527344 101.058594 210.226562 C 100.699219 209.042969 100.332031 208.289062 100.292969 208.183594 C 100.203125 207.980469 99.992188 207.566406 99.742188 207.050781 C 99.488281 206.550781 99.179688 205.957031 98.886719 205.382812 C 98.734375 205.09375 98.617188 204.824219 98.488281 204.566406 C 98.429688 204.4375 98.371094 204.316406 98.3125 204.199219 C 98.261719 204.078125 98.214844 203.960938 98.167969 203.851562 C 98.078125 203.636719 98.003906 203.457031 97.949219 203.328125 C 97.925781 203.273438 97.910156 203.230469 97.894531 203.195312 L 97.890625 203.183594 C 97.886719 203.175781 97.882812 203.167969 97.882812 203.160156 C 97.878906 203.152344 97.875 203.144531 97.875 203.140625 C 97.820312 202.988281 97.566406 202.226562 97.300781 201.425781 C 97.070312 200.609375 96.832031 199.757812 96.742188 199.445312 C 96.683594 199.238281 96.523438 198.558594 96.292969 197.640625 C 96.175781 197.183594 96.085938 196.652344 95.964844 196.101562 C 95.84375 195.546875 95.738281 194.957031 95.640625 194.359375 C 95.425781 193.175781 95.277344 191.960938 95.152344 190.976562 C 95.046875 189.992188 94.957031 189.234375 94.941406 188.917969 C 94.914062 188.472656 94.355469 186.910156 94.058594 187.238281 C 93.796875 187.523438 93.601562 187.894531 93.640625 188.476562 C 93.6875 189.261719 93.75 190.066406 93.835938 190.863281 C 93.996094 192.210938 94.207031 193.546875 94.453125 194.882812 C 94.878906 197.222656 95.417969 199.546875 96.15625 201.816406 Z M 97.882812 203.167969 C 97.882812 203.167969 97.882812 203.171875 97.882812 203.171875 Z M 97.882812 203.167969 " fill-opacity="1" fill-rule="nonzero"/><path fill="#d9d9d9" d="M 114.121094 124.472656 C 116.273438 123.695312 118.09375 123.238281 118.96875 122.820312 C 119.019531 122.972656 121.894531 131.910156 123.800781 133.882812 L 131.273438 123.535156 C 132.429688 124.675781 133.976562 125.183594 135.769531 125.785156 L 123.117188 158.40625 Z M 145.511719 132.484375 C 145.519531 132.722656 146.277344 152.117188 144.613281 160.734375 C 144.613281 160.734375 148.148438 176.402344 149.265625 183.582031 L 150.195312 207.359375 C 150.195312 207.359375 153.640625 207.082031 155.964844 210.109375 C 155.917969 208.386719 159.96875 178.917969 159.96875 178.917969 C 159.96875 178.917969 152.824219 143.539062 145.511719 132.484375 Z M 103.582031 132.09375 C 103.328125 132.5 103.09375 132.921875 102.878906 133.367188 C 98.691406 141.992188 91.992188 149.917969 91.992188 149.917969 L 73.242188 130.617188 C 73.242188 130.617188 73.398438 134.78125 69.195312 135.324219 C 70.511719 136.925781 85.648438 167.574219 93.28125 167.574219 C 97.996094 167.574219 103.144531 155.328125 103.144531 155.328125 C 101.964844 148.613281 103.582031 132.09375 103.582031 132.09375 Z M 103.582031 132.09375 " fill-opacity="1" fill-rule="nonzero"/><path fill="#f4be69" d="M 123.800781 133.882812 C 121.894531 131.910156 119.019531 122.972656 118.96875 122.820312 C 119.191406 122.710938 119.355469 122.609375 119.445312 122.503906 C 120.511719 121.246094 120.511719 115.964844 120.511719 115.964844 C 118.230469 114.179688 117.097656 110.71875 116.769531 108.546875 L 116.769531 108.542969 C 116.765625 108.511719 116.761719 108.484375 116.757812 108.453125 L 116.757812 108.449219 L 116.757812 108.453125 C 116.683594 107.953125 116.65625 107.527344 116.667969 107.210938 C 116.761719 104.785156 117.722656 99.65625 117.722656 99.65625 C 117.722656 99.65625 126.28125 100.902344 131.773438 99.378906 C 131.773438 99.378906 132.050781 103.0625 131.773438 104.039062 C 131.773438 104.039062 134.65625 102.6875 134.9375 105.390625 C 135.214844 108.097656 133.046875 108.609375 132.640625 108.515625 C 132.640625 108.515625 132.417969 110.527344 131.144531 112.621094 C 130.636719 113.460938 129.960938 114.308594 129.066406 115.046875 C 129.027344 119.757812 129.855469 122.128906 131.273438 123.535156 Z M 150.195312 207.359375 C 150.195312 207.359375 146.476562 211.460938 146.476562 214.121094 C 146.476562 216.777344 147.21875 217.199219 147.777344 218.175781 C 147.777344 218.175781 148.289062 219.527344 147.683594 221.253906 C 147.078125 222.980469 149.5 224.9375 150.476562 225.496094 C 151.453125 226.058594 153.59375 224.9375 154.523438 224.472656 C 155.453125 224.003906 157.363281 222.980469 157.082031 220.367188 C 156.804688 217.757812 156.011719 211.835938 155.964844 210.109375 C 153.640625 207.082031 150.195312 207.359375 150.195312 207.359375 Z M 73.242188 130.617188 C 73.242188 130.617188 73.136719 129.957031 72.519531 129.277344 L 53.910156 129.277344 C 54.582031 130.066406 55.710938 131.015625 57.425781 131.394531 C 60.589844 132.09375 60.167969 131.136719 64.03125 133.785156 C 64.738281 134.273438 67.800781 133.636719 69.195312 135.324219 C 73.398438 134.78125 73.242188 130.617188 73.242188 130.617188 Z M 73.242188 130.617188 " fill-opacity="1" fill-rule="nonzero"/><path fill="#1d1d23" d="M 144.613281 160.734375 L 145.359375 188.335938 C 144.800781 188.449219 144.246094 188.558594 143.695312 188.65625 C 120.308594 193.019531 105.476562 188.503906 101.113281 186.84375 L 101.109375 186.84375 C 100.214844 186.507812 99.761719 186.285156 99.761719 186.285156 C 102.179688 178.359375 103.144531 155.328125 103.144531 155.328125 C 101.964844 148.613281 103.582031 132.09375 103.582031 132.09375 C 106.195312 127.878906 110.601562 125.746094 114.121094 124.472656 L 123.117188 158.402344 L 135.769531 125.785156 C 138.175781 126.59375 141.023438 127.578125 143.960938 130.523438 C 144.476562 131.039062 144.996094 131.699219 145.511719 132.480469 C 145.511719 132.480469 145.511719 132.480469 145.511719 132.484375 C 145.523438 132.722656 146.277344 152.117188 144.613281 160.734375 Z M 64.222656 110.746094 C 64.109375 109.238281 63.234375 108.0625 62.171875 108.0625 C 61.109375 108.0625 60.238281 109.238281 60.125 110.746094 C 49.90625 111.566406 41.882812 118.488281 41.613281 126.980469 L 82.734375 126.980469 C 82.460938 118.488281 74.441406 111.566406 64.222656 110.746094 Z M 64.222656 110.746094 " fill-opacity="1" fill-rule="nonzero"/><g clip-path="url(#a554fee4fd)"><path fill="#1d1d23" d="M 116.769531 108.542969 L 116.769531 108.546875 L 116.660156 108.554688 L 116.613281 108.605469 L 116.550781 108.65625 L 116.65625 108.554688 C 116.410156 108.265625 111.070312 101.984375 115.117188 97.839844 C 115.117188 97.839844 112.09375 92.945312 117.070312 90.894531 C 122.046875 88.839844 131.492188 88.792969 135.214844 95.367188 C 138.9375 101.941406 137.445312 108.707031 131.144531 112.625 C 132.417969 110.527344 132.640625 108.515625 132.640625 108.515625 C 133.046875 108.609375 135.214844 108.097656 134.9375 105.394531 C 134.65625 102.6875 131.773438 104.042969 131.773438 104.042969 C 132.050781 103.0625 131.773438 99.378906 131.773438 99.378906 C 126.28125 100.902344 117.722656 99.660156 117.722656 99.660156 C 117.722656 99.660156 116.761719 104.789062 116.667969 107.210938 C 116.65625 107.527344 116.683594 107.957031 116.757812 108.453125 L 116.757812 108.449219 L 116.757812 108.453125 C 116.761719 108.484375 116.761719 108.511719 116.769531 108.542969 Z M 116.664062 108.5625 L 116.613281 108.605469 L 116.558594 108.664062 Z M 101.113281 186.84375 L 101.109375 186.84375 C 101.109375 186.84375 107.949219 264.480469 108.476562 267.34375 C 108.5 267.457031 108.496094 267.578125 108.472656 267.710938 C 107.917969 270.859375 95.058594 278.679688 95.957031 280.644531 C 96.894531 282.6875 111.054688 279.144531 114.332031 277.917969 C 114.980469 277.675781 115.589844 274.554688 116.164062 269.65625 C 115.386719 269.792969 114.597656 269.789062 113.835938 269.691406 C 114.597656 269.789062 115.386719 269.792969 116.164062 269.652344 C 118.476562 249.839844 120.941406 210.820312 122.09375 204.84375 C 122.09375 204.84375 132.226562 248.714844 138.039062 269.226562 C 138.039062 269.226562 142.164062 270.652344 145.589844 268.285156 C 145.582031 268.203125 145.578125 268.121094 145.578125 268.035156 C 144.738281 241.804688 144.199219 192.863281 143.699219 188.660156 C 143.699219 188.660156 143.695312 188.660156 143.695312 188.65625 C 120.308594 193.019531 105.476562 188.503906 101.113281 186.84375 Z M 145.589844 268.289062 C 142.164062 270.652344 138.039062 269.230469 138.039062 269.230469 C 139 272.621094 139.816406 275.105469 140.429688 276.28125 C 143.179688 281.597656 150.679688 285.988281 153.300781 286.234375 C 155.640625 286.453125 153.886719 283.007812 149.089844 276.28125 C 147.636719 274.246094 145.785156 272.128906 145.589844 268.289062 Z M 82.617188 129.277344 L 86.269531 129.277344 L 86.269531 126.980469 L 37.511719 126.980469 L 37.511719 129.277344 Z M 83.535156 112.769531 C 83.632812 112.726562 83.949219 112.65625 84.242188 112.535156 C 84.546875 112.429688 84.820312 112.277344 84.90625 112.222656 C 85.011719 112.140625 85.585938 111.832031 86.101562 111.480469 C 86.617188 111.136719 87.09375 110.78125 87.125 110.753906 C 87.191406 110.699219 87.402344 110.539062 87.605469 110.386719 C 87.800781 110.238281 87.984375 110.097656 87.992188 110.089844 C 88.03125 110.042969 88.46875 109.691406 88.558594 109.613281 C 88.621094 109.554688 88.949219 109.25 89.292969 108.960938 C 89.644531 108.664062 89.96875 108.417969 90.089844 108.347656 C 90.164062 108.304688 90.167969 107.777344 89.933594 107.546875 C 89.730469 107.34375 89.546875 107.195312 89.453125 107.257812 C 89.324219 107.335938 89.179688 107.390625 89.050781 107.496094 C 88.824219 107.667969 88.636719 107.855469 88.4375 108.03125 C 88.09375 108.339844 87.753906 108.648438 87.4375 108.972656 C 87.21875 109.191406 87.027344 109.433594 86.820312 109.660156 C 86.597656 109.902344 86.371094 110.128906 86.144531 110.363281 L 85.898438 110.605469 C 85.726562 110.785156 85.546875 110.953125 85.367188 111.125 C 85.347656 111.140625 85.097656 111.351562 84.796875 111.542969 C 84.5 111.75 84.15625 111.9375 83.988281 112.003906 C 83.777344 112.101562 83.574219 112.203125 83.367188 112.316406 C 83.320312 112.34375 83.46875 112.796875 83.535156 112.769531 Z M 57.832031 100.019531 C 57.914062 100.402344 57.96875 100.78125 58.03125 101.15625 C 58.078125 101.414062 58.15625 101.667969 58.210938 101.921875 C 58.273438 102.203125 58.332031 102.480469 58.390625 102.757812 L 58.460938 103.058594 L 58.621094 103.703125 C 58.632812 103.726562 58.652344 104.011719 58.734375 104.332031 C 58.804688 104.652344 58.878906 105.007812 58.90625 105.171875 C 58.9375 105.382812 59.007812 105.585938 59.078125 105.789062 C 59.09375 105.835938 59.554688 105.714844 59.542969 105.65625 C 59.507812 105.480469 59.453125 104.601562 59.398438 104.449219 C 59.28125 104.246094 59.292969 102.296875 59.273438 102.234375 C 59.265625 102.164062 59.261719 101.929688 59.261719 101.710938 C 59.257812 101.492188 59.253906 101.289062 59.253906 101.28125 C 59.238281 101.226562 59.21875 100.730469 59.203125 100.617188 C 59.203125 100.460938 58.933594 99.058594 58.921875 98.847656 C 58.917969 98.773438 58.449219 98.585938 58.140625 98.691406 C 57.867188 98.78125 57.65625 98.878906 57.667969 98.972656 C 57.679688 99.105469 57.667969 99.238281 57.6875 99.367188 C 57.726562 99.585938 57.785156 99.800781 57.832031 100.019531 Z M 67.875 106.628906 C 67.929688 106.417969 68.308594 105.410156 68.339844 105.210938 C 68.378906 104.9375 69.164062 102.699219 69.183594 102.613281 C 69.234375 102.445312 69.492188 101.542969 69.5 101.523438 C 69.5 101.457031 69.652344 100.890625 69.679688 100.761719 C 69.710938 100.589844 70.027344 98.886719 70.09375 98.644531 C 70.117188 98.558594 69.757812 98.164062 69.425781 98.160156 C 69.140625 98.15625 68.90625 98.183594 68.878906 98.296875 C 68.839844 98.449219 68.773438 98.597656 68.746094 98.753906 C 68.695312 99.015625 68.667969 99.28125 68.625 99.546875 C 68.546875 100.011719 68.460938 100.472656 68.390625 100.9375 C 68.347656 101.253906 68.332031 101.578125 68.292969 101.894531 C 68.261719 102.242188 68.203125 102.574219 68.144531 102.910156 L 68.082031 103.269531 L 67.96875 104.046875 C 67.960938 104.101562 67.660156 105.386719 67.550781 105.761719 C 67.476562 106.003906 67.441406 106.253906 67.40625 106.507812 C 67.398438 106.566406 67.855469 106.699219 67.875 106.628906 Z M 38.578125 110.164062 C 38.742188 110.347656 38.925781 110.515625 39.101562 110.695312 C 39.402344 111.011719 39.707031 111.328125 40.027344 111.625 C 40.242188 111.832031 40.488281 112.007812 40.71875 112.199219 C 40.964844 112.40625 41.210938 112.609375 41.464844 112.804688 L 41.734375 113.015625 C 41.933594 113.164062 42.140625 113.296875 42.34375 113.4375 C 42.378906 113.476562 43.363281 114.226562 43.664062 114.433594 C 43.855469 114.574219 44.066406 114.6875 44.28125 114.792969 C 44.328125 114.820312 44.582031 114.414062 44.527344 114.378906 C 44.363281 114.265625 43.632812 113.632812 43.492188 113.527344 C 43.4375 113.496094 43.300781 113.382812 43.125 113.226562 C 42.953125 113.070312 42.75 112.859375 42.550781 112.660156 C 42.152344 112.25 41.800781 111.828125 41.769531 111.804688 C 41.710938 111.753906 41.554688 111.558594 41.40625 111.378906 C 41.257812 111.199219 41.117188 111.035156 41.113281 111.027344 C 41.0625 110.992188 40.726562 110.578125 40.644531 110.496094 C 40.527344 110.390625 39.472656 109.242188 39.332031 109.046875 C 39.28125 108.980469 38.765625 109.046875 38.5625 109.304688 C 38.382812 109.527344 38.257812 109.726562 38.320312 109.808594 C 38.414062 109.925781 38.480469 110.058594 38.578125 110.164062 Z M 47.875 106.394531 C 47.945312 106.621094 48 106.847656 48.074219 107.074219 C 48.125 107.226562 48.207031 107.371094 48.269531 107.519531 C 48.332031 107.683594 48.394531 107.847656 48.457031 108.007812 L 48.527344 108.183594 L 48.691406 108.550781 C 48.703125 108.578125 48.875 109.222656 48.902344 109.417969 C 48.917969 109.546875 48.972656 109.664062 49.027344 109.785156 C 49.042969 109.808594 49.5 109.6875 49.496094 109.652344 C 49.472656 109.546875 49.472656 108.996094 49.429688 108.90625 C 49.375 108.777344 49.324219 107.585938 49.316406 107.546875 C 49.308594 107.503906 49.300781 107.363281 49.292969 107.230469 C 49.289062 107.101562 49.285156 106.976562 49.28125 106.972656 C 49.265625 106.945312 49.238281 106.648438 49.222656 106.582031 C 49.203125 106.5 48.992188 105.65625 48.980469 105.53125 C 48.976562 105.484375 48.523438 105.429688 48.214844 105.53125 C 47.945312 105.621094 47.734375 105.710938 47.742188 105.769531 C 47.753906 105.847656 47.734375 105.929688 47.753906 106.007812 C 47.785156 106.140625 47.839844 106.265625 47.875 106.394531 Z M 165.535156 180.726562 C 165.476562 180.316406 165.417969 179.820312 165.378906 179.328125 C 165.308594 178.335938 165.304688 177.34375 165.28125 177.03125 C 165.261719 176.8125 165.257812 176.191406 165.222656 175.363281 C 165.21875 174.953125 165.179688 174.480469 165.144531 173.984375 C 165.132812 173.734375 165.09375 173.492188 165.058594 173.246094 C 165.023438 172.992188 165 172.769531 164.949219 172.488281 C 164.578125 170.492188 163.957031 168.648438 163.914062 168.515625 C 163.828125 168.253906 163.546875 167.421875 163.28125 166.648438 C 163.015625 165.878906 162.769531 165.167969 162.757812 165.132812 C 162.667969 164.945312 162.082031 163.207031 161.957031 162.820312 C 161.882812 162.558594 161.382812 161.160156 161.089844 159.699219 C 161.023438 159.332031 160.957031 158.96875 160.894531 158.617188 C 160.855469 158.261719 160.816406 157.925781 160.78125 157.621094 C 160.742188 157.023438 160.71875 156.570312 160.722656 156.375 C 160.734375 156.097656 160.324219 155.074219 160 155.261719 C 159.710938 155.421875 159.484375 155.640625 159.46875 156.007812 C 159.433594 156.492188 159.457031 157.042969 159.476562 157.566406 C 159.515625 158.003906 159.578125 158.4375 159.640625 158.871094 C 159.726562 159.296875 159.800781 159.730469 159.898438 160.152344 C 160.234375 161.640625 160.707031 163.082031 161.238281 164.480469 C 161.601562 165.433594 162.007812 166.359375 162.390625 167.292969 C 162.789062 168.292969 163.183594 169.292969 163.515625 170.308594 C 163.644531 170.671875 163.742188 171.039062 163.863281 171.402344 C 163.988281 171.796875 164.078125 172.195312 164.1875 172.589844 C 164.277344 172.960938 164.347656 173.394531 164.429688 173.796875 C 164.441406 173.886719 164.566406 174.929688 164.617188 176.15625 C 164.660156 177.371094 164.738281 178.742188 164.792969 179.363281 C 164.824219 179.769531 164.898438 180.175781 164.960938 180.578125 C 165.035156 180.980469 165.15625 181.375 165.253906 181.773438 C 165.304688 181.960938 165.769531 181.851562 165.71875 181.628906 C 165.683594 181.460938 165.617188 181.136719 165.535156 180.726562 Z M 163.84375 187.441406 C 163.546875 187.5 163.296875 187.605469 163.246094 187.847656 C 163.179688 188.171875 163.085938 188.496094 163.027344 188.824219 L 162.746094 190.503906 C 162.574219 191.480469 162.390625 192.460938 162.230469 193.445312 C 162.117188 194.113281 162.050781 194.796875 161.960938 195.46875 C 161.855469 196.191406 161.765625 196.914062 161.683594 197.640625 L 161.597656 198.421875 C 161.539062 198.980469 161.511719 199.542969 161.46875 200.097656 C 161.4375 200.21875 161.207031 203.035156 161.191406 203.867188 C 161.164062 204.410156 161.175781 204.953125 161.1875 205.492188 C 161.191406 205.621094 161.667969 205.636719 161.671875 205.480469 C 161.6875 205.019531 161.859375 202.777344 161.90625 202.367188 C 161.910156 202.222656 161.949219 201.804688 162.007812 201.261719 C 162.0625 200.71875 162.1875 200.050781 162.285156 199.394531 C 162.488281 198.085938 162.769531 196.832031 162.773438 196.742188 C 162.796875 196.5625 162.929688 195.992188 163.042969 195.460938 C 163.160156 194.929688 163.265625 194.4375 163.269531 194.414062 C 163.285156 194.277344 163.554688 193.066406 163.605469 192.792969 C 163.671875 192.429688 164.347656 188.820312 164.445312 188.300781 C 164.484375 188.117188 164.183594 187.371094 163.84375 187.441406 Z M 96.160156 201.816406 C 95.421875 199.546875 94.882812 197.222656 94.453125 194.882812 C 94.207031 193.550781 93.996094 192.214844 93.839844 190.863281 C 93.753906 190.066406 93.691406 189.261719 93.644531 188.476562 C 93.605469 187.894531 93.800781 187.527344 94.058594 187.238281 C 94.355469 186.910156 94.914062 188.476562 94.945312 188.917969 C 94.960938 189.234375 95.050781 189.992188 95.152344 190.980469 C 95.28125 191.960938 95.429688 193.175781 95.644531 194.359375 C 95.742188 194.957031 95.847656 195.546875 95.96875 196.101562 C 96.085938 196.65625 96.179688 197.183594 96.296875 197.640625 C 96.523438 198.558594 96.683594 199.238281 96.746094 199.445312 C 96.832031 199.757812 97.074219 200.609375 97.304688 201.425781 C 97.570312 202.226562 97.820312 202.992188 97.875 203.140625 C 97.878906 203.144531 97.878906 203.152344 97.882812 203.164062 C 97.886719 203.167969 97.886719 203.175781 97.890625 203.183594 L 97.894531 203.195312 C 97.910156 203.230469 97.929688 203.273438 97.953125 203.328125 C 98.007812 203.457031 98.082031 203.636719 98.171875 203.851562 C 98.214844 203.960938 98.265625 204.078125 98.316406 204.199219 C 98.371094 204.316406 98.429688 204.4375 98.492188 204.566406 C 98.617188 204.824219 98.738281 205.09375 98.886719 205.382812 C 99.183594 205.957031 99.488281 206.550781 99.746094 207.050781 C 99.996094 207.566406 100.203125 207.980469 100.296875 208.183594 C 100.332031 208.289062 100.699219 209.042969 101.058594 210.226562 C 101.128906 210.527344 101.203125 210.855469 101.28125 211.195312 C 101.351562 211.53125 101.402344 211.878906 101.472656 212.238281 C 101.589844 212.976562 101.675781 213.785156 101.730469 214.578125 C 101.839844 216.179688 101.824219 217.796875 101.8125 219.101562 C 101.804688 220.402344 101.804688 221.394531 101.820312 221.738281 C 101.84375 222.226562 101.839844 223.804688 101.992188 225.375 C 102.125 226.953125 102.484375 228.507812 102.652344 229.023438 C 102.75 229.375 102.289062 229.488281 102.199219 229.195312 C 101.785156 227.96875 101.539062 226.6875 101.40625 225.40625 C 101.109375 223.425781 101.1875 216.773438 101.109375 216.503906 C 101.039062 215.199219 100.917969 213.882812 100.6875 212.628906 C 100.5625 212.027344 100.4375 211.410156 100.28125 210.851562 C 100.074219 210.054688 99.734375 209.289062 99.382812 208.535156 C 99 207.78125 98.589844 207.042969 98.167969 206.289062 C 97.96875 205.9375 97.773438 205.585938 97.582031 205.214844 L 97.292969 204.664062 L 97.039062 204.117188 L 96.910156 203.84375 L 96.847656 203.710938 L 96.816406 203.640625 L 96.777344 203.539062 L 96.570312 202.964844 Z M 97.882812 203.167969 L 97.882812 203.171875 C 97.882812 203.171875 97.882812 203.167969 97.882812 203.167969 Z M 98.910156 221.472656 C 98.914062 221.339844 98.472656 220.859375 98.148438 220.960938 C 97.871094 221.050781 97.648438 221.167969 97.648438 221.34375 C 97.644531 221.585938 97.617188 221.828125 97.625 222.070312 L 97.679688 223.292969 L 97.730469 225.441406 C 97.746094 225.933594 97.796875 226.425781 97.824219 226.914062 C 97.851562 227.441406 97.878906 227.96875 97.917969 228.496094 L 97.957031 229.0625 C 97.984375 229.464844 98.039062 229.871094 98.082031 230.273438 C 98.074219 230.363281 98.238281 232.402344 98.320312 233.003906 C 98.359375 233.394531 98.441406 233.78125 98.523438 234.164062 C 98.542969 234.253906 99.011719 234.183594 98.996094 234.074219 C 98.949219 233.742188 98.847656 232.125 98.828125 231.828125 C 98.8125 231.726562 98.796875 231.425781 98.78125 231.03125 C 98.769531 230.636719 98.777344 230.148438 98.78125 229.667969 C 98.792969 228.707031 98.847656 227.78125 98.84375 227.714844 C 98.84375 227.585938 98.867188 227.160156 98.886719 226.769531 C 98.910156 226.375 98.929688 226.011719 98.929688 225.996094 C 98.917969 225.894531 98.957031 224.996094 98.957031 224.796875 C 98.953125 224.523438 98.917969 221.859375 98.910156 221.472656 Z M 98.910156 221.472656 " fill-opacity="1" fill-rule="nonzero"/></g><g fill="#ffffff" fill-opacity="1"><g transform="translate(197.228723, 177.65492)"><g><path d="M 18.09375 -14.335938 C 20.21875 -15.371094 21.25 -17.324219 21.25 -19.710938 C 21.25 -24.332031 18.171875 -27.152344 12.308594 -27.152344 L 3.515625 -27.152344 L 3.515625 0 L 14.695312 0 C 20.425781 0 23.207031 -3.023438 23.207031 -7.609375 C 23.207031 -11.480469 21.15625 -13.492188 18.09375 -14.335938 Z M 12.363281 -22.472656 C 14.882812 -22.472656 16.066406 -21.15625 16.066406 -19.355469 C 16.066406 -17.511719 15.011719 -16.085938 12.609375 -16.085938 L 8.945312 -16.085938 L 8.945312 -22.472656 Z M 13.640625 -4.828125 L 8.945312 -4.828125 L 8.945312 -11.742188 L 13.527344 -11.742188 C 16.703125 -11.742188 17.738281 -10.035156 17.738281 -8.230469 C 17.738281 -6.464844 16.6875 -4.828125 13.640625 -4.828125 Z M 13.640625 -4.828125 "/></g></g></g><g fill="#ffffff" fill-opacity="1"><g transform="translate(221.920128, 177.65492)"><g><path d="M 18.453125 -23.394531 L 18.453125 -26.457031 L 4.152344 -26.457031 L 4.152344 0 L 7.589844 0 L 7.589844 -11.707031 L 17.0625 -11.707031 L 17.0625 -14.75 L 7.589844 -14.75 L 7.589844 -23.394531 Z M 18.453125 -23.394531 "/></g></g></g><g fill="#ffffff" fill-opacity="1"><g transform="translate(241.889094, 177.65492)"><g><path d="M 15.484375 0.355469 C 22.867188 0.355469 28.617188 -4.773438 28.617188 -13.246094 C 28.617188 -21.683594 22.867188 -26.8125 15.484375 -26.8125 C 8.023438 -26.8125 2.3125 -21.683594 2.3125 -13.246094 C 2.3125 -4.773438 8.023438 0.355469 15.484375 0.355469 Z M 15.484375 -2.820312 C 9.996094 -2.820312 5.65625 -6.578125 5.65625 -13.246094 C 5.65625 -19.84375 9.996094 -23.601562 15.484375 -23.601562 C 20.933594 -23.601562 25.253906 -19.84375 25.253906 -13.246094 C 25.253906 -6.578125 20.933594 -2.820312 15.484375 -2.820312 Z M 15.484375 -2.820312 "/></g></g></g><g fill="#ffffff" fill-opacity="1"><g transform="translate(272.809986, 177.65492)"><g><path d="M 15.484375 0.355469 C 22.867188 0.355469 28.617188 -4.773438 28.617188 -13.246094 C 28.617188 -21.683594 22.867188 -26.8125 15.484375 -26.8125 C 8.023438 -26.8125 2.3125 -21.683594 2.3125 -13.246094 C 2.3125 -4.773438 8.023438 0.355469 15.484375 0.355469 Z M 15.484375 -2.820312 C 9.996094 -2.820312 5.65625 -6.578125 5.65625 -13.246094 C 5.65625 -19.84375 9.996094 -23.601562 15.484375 -23.601562 C 20.933594 -23.601562 25.253906 -19.84375 25.253906 -13.246094 C 25.253906 -6.578125 20.933594 -2.820312 15.484375 -2.820312 Z M 15.484375 -2.820312 "/></g></g></g><g fill="#ffffff" fill-opacity="1"><g transform="translate(303.730878, 177.65492)"><g><path d="M 4.152344 0 L 12.683594 0 C 20.761719 0 24.898438 -5.488281 24.898438 -13.246094 C 24.898438 -20.96875 20.761719 -26.457031 12.683594 -26.457031 L 4.152344 -26.457031 Z M 7.515625 -3.0625 L 7.515625 -23.394531 L 12.570312 -23.394531 C 18.546875 -23.394531 21.402344 -19.371094 21.402344 -13.246094 C 21.402344 -7.066406 18.546875 -3.0625 12.570312 -3.0625 Z M 7.515625 -3.0625 "/></g></g></g><g fill="#ffffff" fill-opacity="1"><g transform="translate(187.448781, 205.389625)"><g><path d="M 3.949219 0.0898438 C 5.832031 0.0898438 7.300781 -1.21875 7.300781 -3.378906 C 7.300781 -5.53125 5.832031 -6.839844 3.949219 -6.839844 C 2.046875 -6.839844 0.589844 -5.53125 0.589844 -3.378906 C 0.589844 -1.21875 2.046875 0.0898438 3.949219 0.0898438 Z M 3.949219 -0.71875 C 2.550781 -0.71875 1.441406 -1.679688 1.441406 -3.378906 C 1.441406 -5.0625 2.550781 -6.019531 3.949219 -6.019531 C 5.339844 -6.019531 6.441406 -5.0625 6.441406 -3.378906 C 6.441406 -1.679688 5.339844 -0.71875 3.949219 -0.71875 Z M 3.949219 -0.71875 "/></g></g></g><g fill="#ffffff" fill-opacity="1"><g transform="translate(195.332054, 205.389625)"><g/></g></g><g fill="#ffffff" fill-opacity="1"><g transform="translate(197.87999, 205.389625)"><g><path d="M 5.394531 0 L 6.289062 0 L 3.800781 -6.75 L 2.777344 -6.75 L 0.289062 0 L 1.183594 0 L 1.757812 -1.617188 L 4.8125 -1.617188 Z M 2.03125 -2.371094 L 3.289062 -5.886719 L 4.542969 -2.371094 Z M 2.03125 -2.371094 "/></g></g></g><g fill="#ffffff" fill-opacity="1"><g transform="translate(204.450981, 205.389625)"><g><path d="M 4.839844 -6.347656 C 4.449219 -6.621094 3.890625 -6.75 3.136719 -6.75 L 1.058594 -6.75 L 1.058594 0 L 1.917969 0 L 1.917969 -2.621094 L 3.136719 -2.621094 C 3.917969 -2.621094 4.488281 -2.785156 4.878906 -3.125 C 5.339844 -3.480469 5.566406 -4.058594 5.566406 -4.789062 C 5.566406 -5.515625 5.324219 -6.035156 4.839844 -6.347656 Z M 4.34375 -3.738281 C 4.070312 -3.460938 3.628906 -3.371094 3.023438 -3.371094 L 1.917969 -3.371094 L 1.917969 -6.007812 L 3.023438 -6.007812 C 3.613281 -6.007812 4.042969 -5.945312 4.328125 -5.710938 C 4.554688 -5.523438 4.6875 -5.214844 4.6875 -4.753906 C 4.6875 -4.277344 4.5625 -3.953125 4.34375 -3.738281 Z M 4.34375 -3.738281 "/></g></g></g><g fill="#ffffff" fill-opacity="1"><g transform="translate(210.471202, 205.389625)"><g><path d="M 4.839844 -6.347656 C 4.449219 -6.621094 3.890625 -6.75 3.136719 -6.75 L 1.058594 -6.75 L 1.058594 0 L 1.917969 0 L 1.917969 -2.621094 L 3.136719 -2.621094 C 3.917969 -2.621094 4.488281 -2.785156 4.878906 -3.125 C 5.339844 -3.480469 5.566406 -4.058594 5.566406 -4.789062 C 5.566406 -5.515625 5.324219 -6.035156 4.839844 -6.347656 Z M 4.34375 -3.738281 C 4.070312 -3.460938 3.628906 -3.371094 3.023438 -3.371094 L 1.917969 -3.371094 L 1.917969 -6.007812 L 3.023438 -6.007812 C 3.613281 -6.007812 4.042969 -5.945312 4.328125 -5.710938 C 4.554688 -5.523438 4.6875 -5.214844 4.6875 -4.753906 C 4.6875 -4.277344 4.5625 -3.953125 4.34375 -3.738281 Z M 4.34375 -3.738281 "/></g></g></g><g fill="#ffffff" fill-opacity="1"><g transform="translate(216.491423, 205.389625)"><g/></g></g><g fill="#ffffff" fill-opacity="1"><g transform="translate(219.039359, 205.389625)"><g><path d="M 3.332031 -4.804688 C 2.59375 -4.804688 1.960938 -4.410156 1.664062 -3.796875 L 1.644531 -4.710938 L 0.84375 -4.710938 L 0.84375 2.417969 L 1.671875 2.417969 L 1.671875 -0.890625 C 1.976562 -0.289062 2.601562 0.101562 3.332031 0.101562 C 4.539062 0.101562 5.53125 -0.84375 5.53125 -2.355469 C 5.53125 -3.859375 4.539062 -4.804688 3.332031 -4.804688 Z M 3.167969 -0.617188 C 2.296875 -0.617188 1.609375 -1.363281 1.609375 -2.355469 C 1.609375 -3.339844 2.296875 -4.085938 3.167969 -4.085938 C 4.003906 -4.085938 4.703125 -3.421875 4.703125 -2.355469 C 4.703125 -1.28125 4.003906 -0.617188 3.167969 -0.617188 Z M 3.167969 -0.617188 "/></g></g></g><g fill="#ffffff" fill-opacity="1"><g transform="translate(225.030844, 205.389625)"><g><path d="M 1.933594 0.0898438 C 2.507812 0.0898438 3.09375 -0.113281 3.476562 -0.636719 L 3.515625 -0.636719 C 3.605469 -0.195312 3.925781 0 4.40625 0 L 4.816406 0 L 4.816406 -0.597656 L 4.742188 -0.597656 C 4.410156 -0.597656 4.261719 -0.710938 4.261719 -1.21875 L 4.261719 -3.164062 C 4.261719 -4.402344 3.398438 -4.792969 2.453125 -4.792969 C 1.410156 -4.792969 0.722656 -4.359375 0.578125 -3.445312 L 1.328125 -3.289062 C 1.40625 -3.917969 1.863281 -4.164062 2.417969 -4.164062 C 2.957031 -4.164062 3.457031 -3.925781 3.457031 -3.242188 C 3.457031 -3 3.328125 -2.855469 3.039062 -2.804688 L 2.277344 -2.679688 C 1.25 -2.507812 0.492188 -2.175781 0.492188 -1.199219 C 0.492188 -0.296875 1.152344 0.0898438 1.933594 0.0898438 Z M 2.125 -0.578125 C 1.667969 -0.578125 1.304688 -0.777344 1.304688 -1.265625 C 1.304688 -1.730469 1.644531 -1.9375 2.273438 -2.042969 L 3.519531 -2.28125 C 3.519531 -1.210938 2.949219 -0.578125 2.125 -0.578125 Z M 2.125 -0.578125 "/></g></g></g><g fill="#ffffff" fill-opacity="1"><g transform="translate(230.169824, 205.389625)"><g><path d="M 1.664062 -3.90625 L 1.644531 -4.710938 L 0.84375 -4.710938 L 0.84375 0 L 1.671875 0 L 1.671875 -2.515625 C 1.671875 -3.574219 2.222656 -3.984375 3.144531 -3.984375 L 3.144531 -4.765625 C 2.484375 -4.753906 1.90625 -4.410156 1.664062 -3.90625 Z M 1.664062 -3.90625 "/></g></g></g><g fill="#ffffff" fill-opacity="1"><g transform="translate(233.436162, 205.389625)"><g><path d="M 1.933594 0.0898438 C 2.507812 0.0898438 3.09375 -0.113281 3.476562 -0.636719 L 3.515625 -0.636719 C 3.605469 -0.195312 3.925781 0 4.40625 0 L 4.816406 0 L 4.816406 -0.597656 L 4.742188 -0.597656 C 4.410156 -0.597656 4.261719 -0.710938 4.261719 -1.21875 L 4.261719 -3.164062 C 4.261719 -4.402344 3.398438 -4.792969 2.453125 -4.792969 C 1.410156 -4.792969 0.722656 -4.359375 0.578125 -3.445312 L 1.328125 -3.289062 C 1.40625 -3.917969 1.863281 -4.164062 2.417969 -4.164062 C 2.957031 -4.164062 3.457031 -3.925781 3.457031 -3.242188 C 3.457031 -3 3.328125 -2.855469 3.039062 -2.804688 L 2.277344 -2.679688 C 1.25 -2.507812 0.492188 -2.175781 0.492188 -1.199219 C 0.492188 -0.296875 1.152344 0.0898438 1.933594 0.0898438 Z M 2.125 -0.578125 C 1.667969 -0.578125 1.304688 -0.777344 1.304688 -1.265625 C 1.304688 -1.730469 1.644531 -1.9375 2.273438 -2.042969 L 3.519531 -2.28125 C 3.519531 -1.210938 2.949219 -0.578125 2.125 -0.578125 Z M 2.125 -0.578125 "/></g></g></g><g fill="#ffffff" fill-opacity="1"><g transform="translate(238.575143, 205.389625)"><g/></g></g><g fill="#ffffff" fill-opacity="1"><g transform="translate(241.123078, 205.389625)"><g><path d="M 2.828125 0.0976562 C 4.183594 0.0976562 5.199219 -0.847656 5.199219 -2.359375 C 5.199219 -3.859375 4.191406 -4.808594 2.828125 -4.808594 C 1.472656 -4.808594 0.457031 -3.859375 0.457031 -2.359375 C 0.457031 -0.847656 1.484375 0.0976562 2.828125 0.0976562 Z M 2.824219 -0.597656 C 1.949219 -0.597656 1.28125 -1.289062 1.28125 -2.359375 C 1.28125 -3.421875 1.949219 -4.113281 2.824219 -4.113281 C 3.707031 -4.113281 4.382812 -3.421875 4.382812 -2.359375 C 4.382812 -1.289062 3.707031 -0.597656 2.824219 -0.597656 Z M 2.824219 -0.597656 "/></g></g></g><g fill="#ffffff" fill-opacity="1"><g transform="translate(246.774514, 205.389625)"><g/></g></g><g fill="#ffffff" fill-opacity="1"><g transform="translate(249.322449, 205.389625)"><g><path d="M 2.335938 0.0898438 C 3.25 0.0898438 4.070312 -0.296875 4.070312 -1.292969 C 4.070312 -2.28125 3.257812 -2.53125 2.515625 -2.722656 C 1.914062 -2.875 1.351562 -2.996094 1.351562 -3.519531 C 1.351562 -4.007812 1.816406 -4.191406 2.25 -4.191406 C 2.738281 -4.191406 3.179688 -3.953125 3.285156 -3.394531 L 4.007812 -3.566406 C 3.859375 -4.417969 3.101562 -4.792969 2.242188 -4.792969 C 1.335938 -4.792969 0.578125 -4.386719 0.578125 -3.460938 C 0.578125 -2.613281 1.222656 -2.359375 1.878906 -2.160156 C 2.636719 -1.933594 3.253906 -1.835938 3.269531 -1.261719 C 3.285156 -0.714844 2.789062 -0.535156 2.328125 -0.535156 C 1.714844 -0.535156 1.273438 -0.851562 1.167969 -1.421875 L 0.445312 -1.21875 C 0.59375 -0.363281 1.335938 0.0898438 2.335938 0.0898438 Z M 2.335938 0.0898438 "/></g></g></g><g fill="#ffffff" fill-opacity="1"><g transform="translate(253.877129, 205.389625)"><g><path d="M 4.964844 -2.449219 C 4.964844 -4.027344 4.050781 -4.808594 2.785156 -4.808594 C 1.457031 -4.808594 0.464844 -3.898438 0.464844 -2.359375 C 0.464844 -0.816406 1.4375 0.0976562 2.808594 0.0976562 C 3.742188 0.0976562 4.523438 -0.429688 4.867188 -1.289062 L 4.117188 -1.449219 C 3.867188 -0.921875 3.378906 -0.597656 2.800781 -0.597656 C 1.988281 -0.597656 1.300781 -1.132812 1.273438 -2.222656 L 4.957031 -2.222656 Z M 2.785156 -4.164062 C 3.523438 -4.164062 4.066406 -3.738281 4.132812 -2.863281 L 1.308594 -2.863281 C 1.449219 -3.738281 2.03125 -4.164062 2.785156 -4.164062 Z M 2.785156 -4.164062 "/></g></g></g><g fill="#ffffff" fill-opacity="1"><g transform="translate(259.293892, 205.389625)"><g><path d="M 3.777344 -4.710938 L 3.777344 -1.894531 C 3.773438 -1 3.257812 -0.605469 2.613281 -0.605469 C 2.054688 -0.605469 1.582031 -0.925781 1.582031 -1.726562 L 1.582031 -4.710938 L 0.753906 -4.710938 L 0.753906 -1.539062 C 0.753906 -0.480469 1.414062 0.0898438 2.382812 0.0898438 C 3 0.0898438 3.5 -0.167969 3.792969 -0.625 L 3.8125 0 L 4.605469 0 L 4.605469 -4.710938 Z M 3.777344 -4.710938 "/></g></g></g><g fill="#ffffff" fill-opacity="1"><g transform="translate(264.739391, 205.389625)"><g/></g></g><g fill="#ffffff" fill-opacity="1"><g transform="translate(267.287326, 205.389625)"><g><path d="M 4.964844 -2.449219 C 4.964844 -4.027344 4.050781 -4.808594 2.785156 -4.808594 C 1.457031 -4.808594 0.464844 -3.898438 0.464844 -2.359375 C 0.464844 -0.816406 1.4375 0.0976562 2.808594 0.0976562 C 3.742188 0.0976562 4.523438 -0.429688 4.867188 -1.289062 L 4.117188 -1.449219 C 3.867188 -0.921875 3.378906 -0.597656 2.800781 -0.597656 C 1.988281 -0.597656 1.300781 -1.132812 1.273438 -2.222656 L 4.957031 -2.222656 Z M 2.785156 -4.164062 C 3.523438 -4.164062 4.066406 -3.738281 4.132812 -2.863281 L 1.308594 -2.863281 C 1.449219 -3.738281 2.03125 -4.164062 2.785156 -4.164062 Z M 2.785156 -4.164062 "/></g></g></g><g fill="#ffffff" fill-opacity="1"><g transform="translate(272.704089, 205.389625)"><g><path d="M 2.335938 0.0898438 C 3.25 0.0898438 4.070312 -0.296875 4.070312 -1.292969 C 4.070312 -2.28125 3.257812 -2.53125 2.515625 -2.722656 C 1.914062 -2.875 1.351562 -2.996094 1.351562 -3.519531 C 1.351562 -4.007812 1.816406 -4.191406 2.25 -4.191406 C 2.738281 -4.191406 3.179688 -3.953125 3.285156 -3.394531 L 4.007812 -3.566406 C 3.859375 -4.417969 3.101562 -4.792969 2.242188 -4.792969 C 1.335938 -4.792969 0.578125 -4.386719 0.578125 -3.460938 C 0.578125 -2.613281 1.222656 -2.359375 1.878906 -2.160156 C 2.636719 -1.933594 3.253906 -1.835938 3.269531 -1.261719 C 3.285156 -0.714844 2.789062 -0.535156 2.328125 -0.535156 C 1.714844 -0.535156 1.273438 -0.851562 1.167969 -1.421875 L 0.445312 -1.21875 C 0.59375 -0.363281 1.335938 0.0898438 2.335938 0.0898438 Z M 2.335938 0.0898438 "/></g></g></g><g fill="#ffffff" fill-opacity="1"><g transform="translate(277.258769, 205.389625)"><g><path d="M 2.347656 0 L 3.011719 0 L 3.011719 -0.660156 L 2.578125 -0.660156 C 2.199219 -0.660156 1.925781 -0.90625 1.925781 -1.367188 L 1.925781 -4.050781 L 3.011719 -4.050781 L 3.011719 -4.710938 L 1.925781 -4.710938 L 1.925781 -6.285156 L 1.15625 -6.285156 L 1.15625 -5.429688 C 1.15625 -4.914062 0.976562 -4.710938 0.484375 -4.710938 L 0.128906 -4.710938 L 0.128906 -4.050781 L 1.09375 -4.050781 L 1.09375 -1.28125 C 1.09375 -0.464844 1.578125 0 2.347656 0 Z M 2.347656 0 "/></g></g></g><g fill="#ffffff" fill-opacity="1"><g transform="translate(280.620894, 205.389625)"><g><path d="M 1.933594 0.0898438 C 2.507812 0.0898438 3.09375 -0.113281 3.476562 -0.636719 L 3.515625 -0.636719 C 3.605469 -0.195312 3.925781 0 4.40625 0 L 4.816406 0 L 4.816406 -0.597656 L 4.742188 -0.597656 C 4.410156 -0.597656 4.261719 -0.710938 4.261719 -1.21875 L 4.261719 -3.164062 C 4.261719 -4.402344 3.398438 -4.792969 2.453125 -4.792969 C 1.410156 -4.792969 0.722656 -4.359375 0.578125 -3.445312 L 1.328125 -3.289062 C 1.40625 -3.917969 1.863281 -4.164062 2.417969 -4.164062 C 2.957031 -4.164062 3.457031 -3.925781 3.457031 -3.242188 C 3.457031 -3 3.328125 -2.855469 3.039062 -2.804688 L 2.277344 -2.679688 C 1.25 -2.507812 0.492188 -2.175781 0.492188 -1.199219 C 0.492188 -0.296875 1.152344 0.0898438 1.933594 0.0898438 Z M 2.125 -0.578125 C 1.667969 -0.578125 1.304688 -0.777344 1.304688 -1.265625 C 1.304688 -1.730469 1.644531 -1.9375 2.273438 -2.042969 L 3.519531 -2.28125 C 3.519531 -1.210938 2.949219 -0.578125 2.125 -0.578125 Z M 2.125 -0.578125 "/></g></g></g><g fill="#ffffff" fill-opacity="1"><g transform="translate(285.759874, 205.389625)"><g><path d="M 3.339844 -4.804688 C 2.597656 -4.804688 1.976562 -4.417969 1.671875 -3.816406 L 1.671875 -7.363281 L 0.84375 -7.363281 L 0.84375 0 L 1.644531 0 L 1.664062 -0.914062 C 1.960938 -0.292969 2.59375 0.101562 3.339844 0.101562 C 4.550781 0.101562 5.535156 -0.863281 5.535156 -2.355469 C 5.535156 -3.839844 4.539062 -4.804688 3.339844 -4.804688 Z M 3.160156 -0.617188 C 2.296875 -0.617188 1.621094 -1.363281 1.621094 -2.355469 C 1.621094 -3.347656 2.300781 -4.089844 3.160156 -4.089844 C 4.015625 -4.089844 4.707031 -3.402344 4.707031 -2.355469 C 4.707031 -1.304688 4.015625 -0.617188 3.160156 -0.617188 Z M 3.160156 -0.617188 "/></g></g></g><g fill="#ffffff" fill-opacity="1"><g transform="translate(291.75136, 205.389625)"><g><path d="M 4.964844 -2.449219 C 4.964844 -4.027344 4.050781 -4.808594 2.785156 -4.808594 C 1.457031 -4.808594 0.464844 -3.898438 0.464844 -2.359375 C 0.464844 -0.816406 1.4375 0.0976562 2.808594 0.0976562 C 3.742188 0.0976562 4.523438 -0.429688 4.867188 -1.289062 L 4.117188 -1.449219 C 3.867188 -0.921875 3.378906 -0.597656 2.800781 -0.597656 C 1.988281 -0.597656 1.300781 -1.132812 1.273438 -2.222656 L 4.957031 -2.222656 Z M 2.785156 -4.164062 C 3.523438 -4.164062 4.066406 -3.738281 4.132812 -2.863281 L 1.308594 -2.863281 C 1.449219 -3.738281 2.03125 -4.164062 2.785156 -4.164062 Z M 2.785156 -4.164062 "/></g></g></g><g fill="#ffffff" fill-opacity="1"><g transform="translate(297.168123, 205.389625)"><g><path d="M 0.84375 0 L 1.683594 0 L 1.683594 -7.363281 L 0.84375 -7.363281 Z M 0.84375 0 "/></g></g></g><g fill="#ffffff" fill-opacity="1"><g transform="translate(299.692117, 205.389625)"><g><path d="M 4.964844 -2.449219 C 4.964844 -4.027344 4.050781 -4.808594 2.785156 -4.808594 C 1.457031 -4.808594 0.464844 -3.898438 0.464844 -2.359375 C 0.464844 -0.816406 1.4375 0.0976562 2.808594 0.0976562 C 3.742188 0.0976562 4.523438 -0.429688 4.867188 -1.289062 L 4.117188 -1.449219 C 3.867188 -0.921875 3.378906 -0.597656 2.800781 -0.597656 C 1.988281 -0.597656 1.300781 -1.132812 1.273438 -2.222656 L 4.957031 -2.222656 Z M 2.785156 -4.164062 C 3.523438 -4.164062 4.066406 -3.738281 4.132812 -2.863281 L 1.308594 -2.863281 C 1.449219 -3.738281 2.03125 -4.164062 2.785156 -4.164062 Z M 2.785156 -4.164062 "/></g></g></g><g fill="#ffffff" fill-opacity="1"><g transform="translate(305.10888, 205.389625)"><g><path d="M 2.800781 0.0859375 C 3.824219 0.0859375 4.664062 -0.488281 4.957031 -1.472656 L 4.179688 -1.601562 C 3.960938 -0.957031 3.433594 -0.609375 2.792969 -0.609375 C 1.925781 -0.609375 1.273438 -1.292969 1.273438 -2.359375 C 1.273438 -3.421875 1.925781 -4.113281 2.792969 -4.113281 C 3.433594 -4.113281 3.960938 -3.761719 4.179688 -3.121094 L 4.957031 -3.246094 C 4.664062 -4.234375 3.839844 -4.804688 2.800781 -4.804688 C 1.453125 -4.804688 0.445312 -3.835938 0.445312 -2.359375 C 0.445312 -0.886719 1.453125 0.0859375 2.800781 0.0859375 Z M 2.800781 0.0859375 "/></g></g></g><g fill="#ffffff" fill-opacity="1"><g transform="translate(310.439434, 205.389625)"><g><path d="M 1.265625 -5.820312 C 1.566406 -5.820312 1.820312 -6.074219 1.820312 -6.378906 C 1.820312 -6.6875 1.566406 -6.9375 1.265625 -6.9375 C 0.957031 -6.9375 0.703125 -6.6875 0.703125 -6.378906 C 0.703125 -6.074219 0.957031 -5.820312 1.265625 -5.820312 Z M 0.84375 0 L 1.679688 0 L 1.679688 -4.710938 L 0.84375 -4.710938 Z M 0.84375 0 "/></g></g></g><g fill="#ffffff" fill-opacity="1"><g transform="translate(312.958634, 205.389625)"><g><path d="M 5.660156 -4.804688 C 5.0625 -4.804688 4.574219 -4.535156 4.289062 -4.03125 C 4.054688 -4.539062 3.5625 -4.804688 2.960938 -4.804688 C 2.402344 -4.804688 1.945312 -4.550781 1.671875 -4.101562 L 1.671875 -4.710938 L 0.84375 -4.710938 L 0.84375 0 L 1.671875 0 L 1.671875 -2.886719 C 1.671875 -3.738281 2.113281 -4.101562 2.664062 -4.101562 C 3.179688 -4.101562 3.59375 -3.773438 3.59375 -3.03125 L 3.59375 0 L 4.4375 0 L 4.4375 -2.914062 C 4.4375 -3.738281 4.867188 -4.101562 5.429688 -4.101562 C 5.925781 -4.101562 6.347656 -3.785156 6.347656 -3.0625 L 6.347656 0 L 7.175781 0 L 7.175781 -3.277344 C 7.175781 -4.269531 6.542969 -4.804688 5.660156 -4.804688 Z M 5.660156 -4.804688 "/></g></g></g><g fill="#ffffff" fill-opacity="1"><g transform="translate(320.889801, 205.389625)"><g><path d="M 4.964844 -2.449219 C 4.964844 -4.027344 4.050781 -4.808594 2.785156 -4.808594 C 1.457031 -4.808594 0.464844 -3.898438 0.464844 -2.359375 C 0.464844 -0.816406 1.4375 0.0976562 2.808594 0.0976562 C 3.742188 0.0976562 4.523438 -0.429688 4.867188 -1.289062 L 4.117188 -1.449219 C 3.867188 -0.921875 3.378906 -0.597656 2.800781 -0.597656 C 1.988281 -0.597656 1.300781 -1.132812 1.273438 -2.222656 L 4.957031 -2.222656 Z M 2.785156 -4.164062 C 3.523438 -4.164062 4.066406 -3.738281 4.132812 -2.863281 L 1.308594 -2.863281 C 1.449219 -3.738281 2.03125 -4.164062 2.785156 -4.164062 Z M 2.785156 -4.164062 "/></g></g></g><g fill="#ffffff" fill-opacity="1"><g transform="translate(326.306564, 205.389625)"><g><path d="M 3.066406 -4.804688 C 2.460938 -4.804688 1.96875 -4.550781 1.671875 -4.109375 L 1.671875 -4.710938 L 0.84375 -4.710938 L 0.84375 0 L 1.671875 0 L 1.671875 -2.820312 C 1.679688 -3.707031 2.195312 -4.101562 2.84375 -4.101562 C 3.394531 -4.101562 3.867188 -3.792969 3.867188 -2.988281 L 3.867188 0 L 4.699219 0 L 4.699219 -3.171875 C 4.699219 -4.234375 4.035156 -4.804688 3.066406 -4.804688 Z M 3.066406 -4.804688 "/></g></g></g><g fill="#ffffff" fill-opacity="1"><g transform="translate(331.756846, 205.389625)"><g><path d="M 2.347656 0 L 3.011719 0 L 3.011719 -0.660156 L 2.578125 -0.660156 C 2.199219 -0.660156 1.925781 -0.90625 1.925781 -1.367188 L 1.925781 -4.050781 L 3.011719 -4.050781 L 3.011719 -4.710938 L 1.925781 -4.710938 L 1.925781 -6.285156 L 1.15625 -6.285156 L 1.15625 -5.429688 C 1.15625 -4.914062 0.976562 -4.710938 0.484375 -4.710938 L 0.128906 -4.710938 L 0.128906 -4.050781 L 1.09375 -4.050781 L 1.09375 -1.28125 C 1.09375 -0.464844 1.578125 0 2.347656 0 Z M 2.347656 0 "/></g></g></g><g fill="#ffffff" fill-opacity="1"><g transform="translate(335.118972, 205.389625)"><g><path d="M 2.828125 0.0976562 C 4.183594 0.0976562 5.199219 -0.847656 5.199219 -2.359375 C 5.199219 -3.859375 4.191406 -4.808594 2.828125 -4.808594 C 1.472656 -4.808594 0.457031 -3.859375 0.457031 -2.359375 C 0.457031 -0.847656 1.484375 0.0976562 2.828125 0.0976562 Z M 2.824219 -0.597656 C 1.949219 -0.597656 1.28125 -1.289062 1.28125 -2.359375 C 1.28125 -3.421875 1.949219 -4.113281 2.824219 -4.113281 C 3.707031 -4.113281 4.382812 -3.421875 4.382812 -2.359375 C 4.382812 -1.289062 3.707031 -0.597656 2.824219 -0.597656 Z M 2.824219 -0.597656 "/></g></g></g></svg>
